<svg width="676" height="676" viewBox="0 0 676 676" fill="none" xmlns="http://www.w3.org/2000/svg">
<path d="M427.957 161.219C420.74 163.789 414.191 169.951 410.881 177.239C408.417 182.661 406.727 190.583 407.396 193.611C408.029 196.674 408.382 196.815 417.395 197.871C430.774 199.42 443.836 205.089 454.117 213.855C460.983 219.7 460.455 219.348 462.109 219.348C464.011 219.348 465.63 218.116 466.158 216.25C466.687 214.243 465.665 212.553 461.722 209.102C449.329 198.258 436.267 192.132 420.212 189.597C418.275 189.28 416.55 188.893 416.409 188.717C415.951 188.294 417.395 183.365 418.803 180.478C419.507 179.105 420.74 177.063 421.62 175.936C423.803 173.19 428.133 169.845 428.133 170.936C428.133 171.746 432.499 186.956 432.922 187.59C433.767 188.893 435.738 189.562 437.323 189.104C439.083 188.576 440.456 186.921 440.456 185.301C440.456 184.175 435.633 165.55 434.753 163.261C433.767 160.726 431.373 160.022 427.957 161.219Z" fill="#868FA0"/>
<path d="M388.876 171.922C385.215 173.401 382.504 175.232 379.617 178.189C372.61 185.301 368.843 196.286 369.477 207.553C369.723 212.165 370.568 217.306 371.343 218.961C372.645 221.707 376.272 222.27 378.243 220.052C379.159 219.031 379.229 218.714 379.088 216.919C379.018 215.827 378.666 213.292 378.349 211.25C377.046 203.539 378.455 195.125 382.081 188.787C384.053 185.301 389.475 180.231 390.32 181.041C390.426 181.182 391.306 184.175 392.256 187.731C398.805 212.377 398.629 211.708 399.861 212.975C400.953 214.067 401.164 214.137 402.854 213.996C405.248 213.75 406.657 212.341 406.657 210.159C406.657 208.961 398.84 178.647 397.291 173.859C396.2 170.479 393.77 169.915 388.876 171.922Z" fill="#868FA0"/>
<path d="M245.754 182.414C233.748 183.788 220.862 188.541 210.687 195.336C192.026 207.835 180.231 226.284 176.147 249.451C175.267 254.486 175.267 269.837 176.147 274.625C178.119 285.152 181.499 294.306 186.428 302.44C187.696 304.552 188.717 306.594 188.717 306.981C188.717 307.404 185.618 313.072 181.851 319.586C173.119 334.69 173.155 334.303 179.668 338.141C198.117 348.985 203.363 351.837 205.124 352.013C206.814 352.154 206.99 352.083 208.081 350.992C208.715 350.323 211.32 346.133 213.855 341.697C217.552 335.254 218.679 333.599 219.242 333.634C219.63 333.634 223.855 335.923 228.643 338.669C234.98 342.366 237.304 343.88 237.234 344.302C237.022 345.429 230.157 357.012 229.699 357.012C229.417 357.012 228.22 356.414 227.023 355.675C217.799 350.041 215.897 349.407 213.75 351.203C211.637 352.999 211.637 355.71 213.75 357.576C214.524 358.245 226.354 365.251 229.101 366.66C229.734 366.976 230.896 367.223 231.706 367.223C233.854 367.223 234.734 366.096 240.086 356.731C242.761 352.048 244.98 348.562 245.261 348.562C245.543 348.562 248.5 350.147 251.81 352.083C257.091 355.146 258.112 355.604 259.485 355.604C260.471 355.604 261.351 355.358 261.774 354.97C263.605 353.421 263.534 354.724 263.71 329.057L263.886 305.08L276.385 304.904C287.546 304.763 289.025 304.658 289.87 304.13C291.103 303.285 291.56 302.404 291.595 300.574C291.595 299.658 289.765 292.229 286.983 281.843C284.413 272.336 281.772 262.549 281.103 260.049C280.434 257.549 279.977 255.26 280.047 255.014C280.188 254.627 283.885 254.556 299.658 254.556C321.135 254.556 320.431 254.627 321.558 252.268C322.015 251.317 328.599 227.235 330.712 218.785C331.874 214.102 331.557 213.644 324.057 209.349C319.128 206.532 315.255 204.279 300.503 195.758C296.067 193.153 290.504 190.195 288.215 189.139C280.54 185.654 272.548 183.365 264.767 182.379C261.316 181.957 249.592 181.992 245.754 182.414ZM264.661 191.005C272.653 192.132 279.272 194.209 287.124 198.082C288.884 198.927 297.334 203.715 305.96 208.68C317.72 215.51 321.663 217.94 321.734 218.503C321.839 219.172 315.467 243.712 314.762 245.296L314.446 246.071L293.567 246.177C274.308 246.282 272.618 246.317 271.773 246.916C270.682 247.655 270.048 248.923 270.048 250.437C270.048 251.352 274.026 266.633 280.575 290.821C281.35 293.637 281.878 295.996 281.772 296.102C281.702 296.208 276.174 296.349 269.485 296.454L257.373 296.63L256.422 297.616L255.436 298.567L255.26 321.206C255.12 340.5 255.014 343.809 254.591 343.704C254.31 343.633 250.014 341.239 245.085 338.387C217.095 322.191 218.256 322.825 216.285 323.142C214.841 323.353 213.574 325.114 208.821 333.423C206.215 337.894 203.927 341.662 203.68 341.767C203.082 341.979 185.196 331.698 185.196 331.134C185.196 330.923 188.118 325.677 191.709 319.48C199.35 306.277 199.279 306.559 196.709 302.756C188.083 290.081 183.823 276.808 183.787 262.478C183.752 242.163 191.287 224.207 205.652 210.37C216.637 199.772 230.791 192.942 245.789 191.04C250.789 190.371 260.26 190.371 264.661 191.005Z" fill="#868FA0"/>
<path d="M176.042 186.111C163.543 188.541 156.924 201.462 162.663 212.271C165.514 217.588 172.169 221.812 177.732 221.812C180.689 221.812 182.731 220.017 182.731 217.411C182.731 215.264 180.654 213.363 178.33 213.363C174.986 213.363 170.937 210.475 169.739 207.166C168.824 204.772 168.824 202.976 169.669 200.688C170.62 198.153 171.782 196.779 173.964 195.582C175.619 194.667 176.218 194.526 178.506 194.526C181.71 194.526 183.365 195.23 185.372 197.484C188.646 201.075 188.576 201.04 190.125 201.04C193.047 201.04 195.054 198.892 194.526 196.251C193.998 193.294 189.034 188.505 184.914 186.956C182.943 186.182 178.049 185.724 176.042 186.111Z" fill="#868FA0"/>
<path d="M356.836 199.807C345.746 202.694 338.106 204.948 337.296 205.546C335.852 206.638 335.359 207.976 335.817 209.666C336.028 210.44 339.303 216.461 343.105 223.045C346.908 229.629 350.429 235.685 350.886 236.494C352.259 238.889 352.119 239.205 347.894 243.29C345.816 245.332 339.232 251.916 333.282 257.936L322.508 268.886V270.47C322.508 271.527 322.755 272.372 323.212 272.97C323.6 273.463 327.684 276.033 332.261 278.674C336.873 281.35 343.739 285.293 347.506 287.476C351.274 289.659 356.414 292.652 358.949 294.095C361.449 295.539 363.667 296.982 363.878 297.299C364.16 297.757 362.751 299.341 356.238 305.855C351.872 310.291 348.105 314.234 347.894 314.657C347.33 315.784 347.401 317.65 348.07 318.635C348.915 319.903 383.348 354.442 384.968 355.639C386.693 356.907 387.749 356.942 392.045 355.745C393.876 355.217 395.566 354.9 395.847 355.006C396.129 355.111 397.185 358.421 398.523 363.42C401.34 373.983 401.586 374.722 402.572 375.638C404.227 377.187 405.213 377.046 419.507 373.208C437.182 368.49 436.583 368.702 437.71 367.54C438.485 366.8 438.696 366.237 438.696 365.146C438.696 364.336 437.569 359.477 436.196 354.337C434.119 346.556 433.767 344.866 434.189 344.514C434.436 344.302 435.668 343.739 436.935 343.281C440.491 342.014 446.653 339.021 449.927 336.979C451.547 335.993 453.061 335.219 453.272 335.289C453.835 335.5 458.624 353.421 458.201 353.844C458.025 353.985 454.962 354.935 451.371 355.886C445.632 357.47 444.752 357.787 443.907 358.738C441.97 360.921 442.956 364.688 445.667 365.498C446.97 365.885 447.744 365.709 456.335 363.35C461.44 361.977 465.877 360.639 466.158 360.428C467.391 359.512 467.919 358.526 467.919 357.083C467.919 356.273 466.334 349.724 464.363 342.542L460.807 329.48L465.172 325.043C472.285 317.755 476.157 312.368 480.382 303.848C483.023 298.531 485.875 290.68 485.875 288.744C485.875 286.279 484.009 284.483 481.509 284.483C480.101 284.483 478.411 285.716 477.847 287.194C477.636 287.758 476.826 290.011 476.017 292.229C474.397 296.665 470.911 303.883 468.799 307.193C462.074 317.755 452.568 326.311 441.16 332.015C437.745 333.705 431.232 336.31 427.852 337.331C425.915 337.894 424.26 339.725 424.26 341.239C424.26 341.873 425.387 346.626 426.76 351.837C428.345 357.858 429.154 361.414 428.943 361.625C428.591 361.977 409.719 367.223 408.874 367.223C408.381 367.223 408.311 367.012 405.283 355.675C403.171 347.929 402.572 346.38 401.34 345.746C400.213 345.112 397.713 345.359 393.876 346.45C391.798 347.013 389.827 347.506 389.475 347.506C388.841 347.506 358.069 316.981 358.069 316.347C358.069 316.136 361.801 312.263 366.378 307.721C370.92 303.179 374.898 299.024 375.18 298.496C375.955 297.018 375.814 295.257 374.757 294.025C373.772 292.828 373.349 292.581 361.414 285.716C346.274 276.984 335.359 270.682 334.514 270.154C333.669 269.625 333.74 269.555 347.26 256C356.52 246.74 361.026 241.987 361.414 241.107C361.871 239.98 361.871 239.593 361.484 238.466C361.237 237.727 357.752 231.424 353.738 224.453C349.724 217.517 346.591 211.673 346.732 211.532C346.908 211.356 350.816 210.229 355.428 208.997C363.068 206.955 363.949 206.638 364.829 205.652C366.167 204.138 366.202 201.92 364.934 200.371C364.125 199.42 363.632 199.174 361.942 198.751C361.66 198.681 359.371 199.138 356.836 199.807Z" fill="#868FA0"/>
<path d="M443.379 213.362C442.956 213.539 442.252 214.313 441.865 215.123C441.477 215.933 440.914 216.637 440.632 216.742C440.351 216.848 439.259 216.531 438.203 216.003C436.372 215.123 436.231 215.088 435.21 215.616C433.027 216.742 433.415 219.066 436.02 220.58C436.935 221.108 437.64 221.707 437.64 221.918C437.64 222.165 437.217 223.15 436.689 224.136C435.879 225.721 435.809 226.108 436.161 226.882C436.372 227.411 436.971 227.974 437.428 228.185C438.872 228.854 440.034 228.291 441.231 226.39C441.829 225.404 442.463 224.629 442.604 224.629C442.78 224.629 443.766 225.052 444.822 225.58C446.477 226.39 446.899 226.46 447.674 226.108C448.167 225.897 448.765 225.298 448.977 224.805C449.61 223.432 448.977 222.165 447.146 221.108C446.266 220.615 445.526 219.911 445.456 219.594C445.385 219.277 445.737 218.327 446.266 217.447C447.287 215.686 447.216 214.384 445.984 213.539C445.139 212.94 444.505 212.905 443.379 213.362Z" fill="#868FA0"/>
<path d="M423.064 219.031C422.536 219.418 421.796 220.369 421.444 221.144C421.057 221.883 420.529 222.517 420.282 222.517C420.036 222.517 419.261 222.129 418.557 221.636C416.937 220.545 415.388 220.51 414.402 221.531C413.064 223.01 413.769 224.805 416.198 226.037C416.937 226.425 417.571 226.988 417.571 227.27C417.571 227.551 417.184 228.502 416.691 229.417C415.423 231.812 416.233 233.783 418.451 233.783C419.684 233.783 420.634 232.938 421.585 231.037C422.289 229.699 422.606 229.664 424.437 230.791C425.211 231.284 426.268 231.671 426.761 231.671C427.852 231.671 429.19 230.333 429.19 229.241C429.19 228.467 427.746 226.847 425.986 225.65L425.141 225.087L426.162 223.08C427.077 221.284 427.113 221.003 426.725 220.017C426.338 219.066 425.211 218.292 424.296 218.292C424.12 218.292 423.592 218.609 423.064 219.031Z" fill="#868FA0"/>
<path d="M480.77 218.785C471.263 220.651 464.222 225.65 460.138 233.502C455.737 241.987 455.103 250.402 458.201 258.253C459.293 260.999 461.405 264.661 463.166 266.914C464.433 268.534 468.728 272.301 470.278 273.181C470.63 273.357 470.806 273.604 470.7 273.71C470.595 273.815 467.215 274.801 463.13 275.857C449.998 279.343 442.78 281.35 441.759 281.737C440.104 282.371 439.048 283.955 439.048 285.786C439.048 287.124 439.224 287.546 440.245 288.567C441.759 290.081 442.991 290.117 448.096 288.744C450.209 288.18 459.891 285.575 469.679 282.934C479.467 280.329 489.431 277.618 491.86 276.949C502.247 273.991 508.303 269.273 512.281 261.07C514.358 256.81 515.063 254.099 515.344 249.451C516.119 235.544 507.176 223.221 493.515 219.313C490.241 218.397 484.115 218.151 480.77 218.785ZM489.959 227.27C493.198 227.939 495.135 228.784 497.811 230.579C504.958 235.438 508.443 244.592 506.296 252.937C505.31 256.88 503.726 259.626 500.662 262.689C495.311 268.111 488.058 270.154 480.805 268.287C476.826 267.266 474.115 265.717 471.052 262.654C465.243 256.915 463.342 248.852 465.982 241.212C467.813 235.825 471.44 231.706 476.545 229.171C481.227 226.847 485.171 226.284 489.959 227.27Z" fill="#868FA0"/>
<path d="M490.91 238.712C488.692 240.05 488.551 241.353 490.1 247.092C491.333 251.599 491.579 252.127 492.952 252.937C495.628 254.521 499.254 252.409 499.254 249.275C499.254 248.324 498.409 244.944 497.459 241.987C496.262 238.29 493.691 237.022 490.91 238.712Z" fill="#868FA0"/>
<path d="M475.313 242.621C472.179 243.923 471.897 245.93 473.939 252.69C475.207 256.986 475.911 257.725 478.657 257.725C480.066 257.725 480.488 257.549 481.509 256.528C482.495 255.542 482.706 255.084 482.706 253.782C482.706 252.197 481.192 246.212 480.418 244.698C479.397 242.726 477.214 241.811 475.313 242.621Z" fill="#868FA0"/>
<path d="M312.861 330.641C306.454 331.522 298.989 334.162 294.201 337.225C282.054 345.006 274.59 356.59 272.689 370.744C272.055 375.18 272.02 378.56 272.548 382.257C274.097 393.559 278.709 402.748 286.596 410.318C293.039 416.444 300.539 420.423 309.482 422.359C313.707 423.275 323.565 423.275 327.79 422.359C342.12 419.261 353.738 410.318 360.217 397.396C365.639 386.658 366.554 373.701 362.787 362.294C360.393 355.146 356.801 349.337 351.415 343.985C344.69 337.296 337.331 333.317 327.966 331.275C324.234 330.465 316.418 330.149 312.861 330.641ZM324.023 339.232C338.352 341.38 349.83 350.851 354.513 364.441C357.963 374.405 357.154 384.792 352.224 394.404C340.782 416.515 311.066 421.549 292.687 404.438C284.237 396.551 279.66 384.405 280.892 373.208C281.913 364.019 285.61 356.203 291.842 349.936C297.581 344.232 304.94 340.5 312.932 339.268C317.051 338.599 319.903 338.599 324.023 339.232Z" fill="#868FA0"/>
<path d="M395.038 404.051C387.75 405.389 384.792 406.304 379.757 408.839C374.828 411.269 371.448 413.698 367.575 417.571C361.026 424.12 356.872 431.971 354.865 441.513C353.774 446.759 353.774 454.364 354.83 459.363C357.259 470.7 363.385 480.523 372.258 487.248C377.962 491.579 382.222 493.621 389.404 495.452C394.721 496.825 402.572 497.177 407.713 496.297C411.656 495.628 417.184 493.973 420.353 492.529C426.937 489.537 435.105 482.46 439.295 476.087C444.928 467.567 447.85 455.878 446.829 446.125C444.682 425.81 430.95 410.001 411.163 405.037C408.17 404.297 406.516 404.121 401.727 404.016C398.523 403.945 395.531 403.945 395.038 404.051ZM408.03 413.205C421.092 415.916 431.936 425.317 436.232 437.745C439.435 447.005 438.907 457.673 434.858 466.299C430.669 475.313 422.852 482.565 413.839 485.84C409.227 487.53 405.635 488.128 400.319 488.093C389.264 488.058 380.426 484.185 372.751 476.052C366.589 469.468 363.139 461.264 362.752 452.075C361.977 434.26 373.244 418.733 390.461 413.839C396.129 412.219 402.22 412.008 408.03 413.205Z" fill="#868FA0"/>
<path d="M241.001 423.028C237.234 423.627 234.241 424.436 230.509 425.88C215.686 431.584 204.561 445.491 201.92 461.511C201.04 466.757 201.321 474.89 202.554 479.714C207.8 500.381 224.876 514.394 245.93 515.344C253.289 515.661 262.161 513.795 268.675 510.486C277.301 506.19 285.152 498.198 289.413 489.466C293.145 481.791 294.905 472.285 293.99 464.539C292.3 450.068 285.223 438.238 273.498 430.316C269.872 427.887 267.091 426.549 262.337 424.965C255.437 422.676 247.656 421.972 241.001 423.028ZM256.704 432.112C267.126 434.788 275.048 440.738 280.611 449.998C282.477 453.096 284.624 459.081 285.223 462.99C285.821 466.898 285.469 474.82 284.519 478.376C281.596 489.607 273.111 499.536 262.83 503.796C257.408 506.049 253.958 506.754 247.867 506.789C241.705 506.789 238.537 506.19 233.291 504.043C224.101 500.24 216.848 493.093 212.905 483.974C210.581 478.552 210.018 475.665 210.053 468.799C210.088 462.25 210.476 460.138 212.658 454.68C215.651 447.216 221.566 440.315 228.502 436.231C232.305 433.978 237.797 432.041 242.515 431.302C245.966 430.739 252.902 431.161 256.704 432.112Z" fill="#868FA0"/>
<path d="M310.303 336.882C302.159 338.671 294.139 342.99 289.573 348.172C285.316 353.046 281.121 359.894 279.702 364.213C277.913 369.827 277.419 380.377 278.776 385.991C281.553 398.022 289.82 408.757 300.308 414.125C307.527 417.765 319.002 418.999 327.948 417.148C333.13 416.037 340.781 412.15 345.161 408.449C360.338 395.431 364.348 373.467 354.539 357.056C345.099 341.324 327.208 333.18 310.303 336.882ZM324.123 351.627C326.714 353.169 332.02 356.007 335.907 358.043L343.002 361.683L343.187 376.552L343.31 391.359L330.848 398.577C321.285 404.13 318.2 405.672 317.46 405.241C316.904 404.87 311.29 401.6 304.935 397.96L293.337 391.297V376.922V362.485L295.928 360.881C297.409 359.956 299.753 358.66 301.172 358.043C302.591 357.426 305.491 355.884 307.65 354.65C316.041 349.838 317.768 348.912 318.57 348.912C319.064 348.912 321.532 350.146 324.123 351.627Z" fill="#868FA0"/>
<path d="M314.005 362.3C311.969 363.473 308.822 365.447 307.033 366.619L303.763 368.717L303.948 377.046L304.133 385.436L310.92 389.385C314.683 391.544 318.077 393.333 318.508 393.333C319.372 393.333 330.601 386.979 332.39 385.436C333.254 384.634 333.439 383.339 333.439 376.614V368.717L331.773 367.544C329.244 365.817 318.879 360.018 318.262 360.018C317.953 360.018 316.041 361.066 314.005 362.3Z" fill="#868FA0"/>
<path d="M238.381 430.036C220.428 434.869 208 450.75 208 468.978C208 479.957 211.798 488.864 220.014 496.942C229.059 505.849 238.657 509.578 250.809 508.818C263.445 507.99 273.802 502.121 280.43 492.04C286.092 483.478 288.578 474.985 287.887 466.562C286.368 448.747 274.492 434.248 257.99 430.036C252.742 428.655 243.421 428.655 238.381 430.036ZM243.214 444.121V448.264H245.631H248.047V444.121V439.978H250.464H252.812L253.019 444.259L253.226 448.54L256.678 449.3C263.514 450.888 266 453.443 266 459.035C266 461.935 265.654 463.109 264.204 464.835C263.169 466.009 262.478 467.045 262.616 467.183C262.754 467.321 263.928 467.943 265.171 468.564C271.523 471.809 270.419 483.133 263.445 486.654C261.857 487.483 258.819 488.38 256.678 488.657L252.881 489.071V493.559V497.978H250.464H248.116L247.909 493.697C247.702 489.347 247.702 489.347 245.493 489.14L243.214 488.933V493.49V498.047L240.659 497.84L238.174 497.633L238.105 493.49L238.035 489.347L232.719 489.14L227.333 488.933V485.895C227.333 482.926 227.402 482.788 229.474 482.788C230.647 482.788 232.166 482.442 232.926 482.097C234.169 481.407 234.238 480.509 234.238 468.771C234.238 459.864 233.962 455.859 233.409 455.307C232.926 454.824 231.407 454.478 229.957 454.478C227.333 454.478 227.333 454.478 227.333 451.716V449.024L232.719 448.817L238.035 448.609L238.174 444.812C238.243 442.74 238.312 440.807 238.312 440.462C238.381 440.186 239.485 439.978 240.797 439.978H243.214V444.121Z" fill="#868FA0"/>
<path d="M243.214 460.347V465.526H247.357C252.259 465.526 255.435 464.145 256.057 461.797C257.092 457.516 253.985 455.169 247.357 455.169H243.214V460.347Z" fill="#868FA0"/>
<path d="M243.559 471.878C243.352 472.431 243.214 475.054 243.352 477.678L243.559 482.442L248.392 482.235C255.988 481.959 259.647 479.335 258.542 475.054C258.128 473.259 253.778 471.602 248.6 471.188C244.871 470.912 243.835 471.05 243.559 471.878Z" fill="#868FA0"/>
<path d="M390.808 408.919C372.642 413.371 359.072 430.747 359 449.702C359 456.523 360.149 461.19 363.452 468.227C370.129 482.228 385.495 491.921 401.004 491.921C410.84 491.921 421.826 487.469 429.437 480.577C442.936 468.083 446.813 447.763 438.699 431.321C433.099 420.048 422.041 411.217 410.122 408.704C405.168 407.698 395.547 407.77 390.808 408.919ZM411.128 433.116C416.441 441.876 420.893 449.415 420.964 449.774C421.108 450.276 407.322 458.749 402.44 461.118C401.219 461.765 399.209 460.831 390.808 456.021L380.612 450.205L390.736 433.403C396.337 424.141 401.075 416.674 401.147 416.817C401.291 416.961 405.814 424.284 411.128 433.116ZM391.167 460.472C396.121 463.272 400.501 465.57 400.932 465.57C401.363 465.57 405.743 463.201 410.625 460.4C415.507 457.6 419.672 455.374 419.816 455.59C420.175 455.949 401.291 482.587 400.716 482.587C400.501 482.587 397.844 479.141 394.901 474.904C391.957 470.668 387.649 464.565 385.351 461.262C383.053 457.959 381.402 455.303 381.689 455.303C381.905 455.303 386.213 457.6 391.167 460.472Z" fill="#868FA0"/>
</svg>
