<svg width="21" height="20" viewBox="0 0 21 20" fill="none" xmlns="http://www.w3.org/2000/svg">
<path d="M10.5 20C4.977 20 0.5 15.523 0.5 10C0.5 4.477 4.977 0 10.5 0C16.023 0 20.5 4.477 20.5 10C20.5 15.523 16.023 20 10.5 20ZM10.5 18C12.6217 18 14.6566 17.1571 16.1569 15.6569C17.6571 14.1566 18.5 12.1217 18.5 10C18.5 7.87827 17.6571 5.84344 16.1569 4.34315C14.6566 2.84285 12.6217 2 10.5 2C8.37827 2 6.34344 2.84285 4.84315 4.34315C3.34285 5.84344 2.5 7.87827 2.5 10C2.5 12.1217 3.34285 14.1566 4.84315 15.6569C6.34344 17.1571 8.37827 18 10.5 18ZM7 12H12.5C12.6326 12 12.7598 11.9473 12.8536 11.8536C12.9473 11.7598 13 11.6326 13 11.5C13 11.3674 12.9473 11.2402 12.8536 11.1464C12.7598 11.0527 12.6326 11 12.5 11H8.5C7.83696 11 7.20107 10.7366 6.73223 10.2678C6.26339 9.79893 6 9.16304 6 8.5C6 7.83696 6.26339 7.20107 6.73223 6.73223C7.20107 6.26339 7.83696 6 8.5 6H9.5V4H11.5V6H14V8H8.5C8.36739 8 8.24021 8.05268 8.14645 8.14645C8.05268 8.24021 8 8.36739 8 8.5C8 8.63261 8.05268 8.75979 8.14645 8.85355C8.24021 8.94732 8.36739 9 8.5 9H12.5C13.163 9 13.7989 9.26339 14.2678 9.73223C14.7366 10.2011 15 10.837 15 11.5C15 12.163 14.7366 12.7989 14.2678 13.2678C13.7989 13.7366 13.163 14 12.5 14H11.5V16H9.5V14H7V12Z" fill="#3A3A3A"/>
</svg>
