<svg width="22" height="21" viewBox="0 0 22 21" fill="none" xmlns="http://www.w3.org/2000/svg">
<path d="M0.5 21C0.5 18.8783 1.34285 16.8434 2.84315 15.3431C4.34344 13.8429 6.37827 13 8.5 13C10.6217 13 12.6566 13.8429 14.1569 15.3431C15.6571 16.8434 16.5 18.8783 16.5 21H14.5C14.5 19.4087 13.8679 17.8826 12.7426 16.7574C11.6174 15.6321 10.0913 15 8.5 15C6.9087 15 5.38258 15.6321 4.25736 16.7574C3.13214 17.8826 2.5 19.4087 2.5 21H0.5ZM8.5 12C5.185 12 2.5 9.315 2.5 6C2.5 2.685 5.185 0 8.5 0C11.815 0 14.5 2.685 14.5 6C14.5 9.315 11.815 12 8.5 12ZM8.5 10C10.71 10 12.5 8.21 12.5 6C12.5 3.79 10.71 2 8.5 2C6.29 2 4.5 3.79 4.5 6C4.5 8.21 6.29 10 8.5 10ZM16.784 13.703C18.1893 14.3359 19.382 15.3612 20.2186 16.6557C21.0552 17.9502 21.5002 19.4587 21.5 21H19.5C19.5002 19.844 19.1666 18.7125 18.5391 17.7416C17.9116 16.7707 17.0171 16.0017 15.963 15.527L16.783 13.703H16.784ZM16.096 2.413C17.1035 2.8283 17.965 3.53354 18.571 4.43923C19.1771 5.34492 19.5004 6.41024 19.5 7.5C19.5004 8.87233 18.9877 10.1952 18.0625 11.2088C17.1374 12.2224 15.8667 12.8535 14.5 12.978V10.965C15.2409 10.8589 15.9283 10.518 16.4613 9.99246C16.9943 9.4669 17.3447 8.78432 17.4612 8.04493C17.5776 7.30555 17.454 6.5483 17.1084 5.88435C16.7628 5.22041 16.2134 4.68475 15.541 4.356L16.096 2.413Z" fill="#3A3A3A"/>
</svg>
